<?xml version="1.0" encoding="UTF-8"?>
<!DOCTYPE svg PUBLIC "-//W3C//DTD SVG 1.1//EN" "http://www.w3.org/Graphics/SVG/1.1/DTD/svg11.dtd">
<svg xmlns="http://www.w3.org/2000/svg" version="1.1" width="100px" height="100px" style="shape-rendering:geometricPrecision; text-rendering:geometricPrecision; image-rendering:optimizeQuality; fill-rule:evenodd; clip-rule:evenodd" xmlns:xlink="http://www.w3.org/1999/xlink">
<g><path style="opacity:0.972" fill="#efeff0" d="M 83.5,11.5 C 82.8969,16.6186 83.5636,21.2853 85.5,25.5C 89.3817,27.9341 93.0484,30.6007 96.5,33.5C 96.6659,38.5111 96.4993,43.5111 96,48.5C 94.4612,51.5208 91.9612,52.8541 88.5,52.5C 88.6665,64.5046 88.4999,76.5046 88,88.5C 87.6258,89.4162 87.1258,90.2496 86.5,91C 62.2566,92.4804 37.9232,92.9804 13.5,92.5C 12.5313,91.6906 11.6979,90.6906 11,89.5C 10.5001,77.8381 10.3335,66.1714 10.5,54.5C 9.44787,52.744 7.78121,52.0773 5.5,52.5C 4.53128,51.6906 3.69794,50.6906 3,49.5C 2.21244,43.7805 2.37911,38.1138 3.5,32.5C 18.3204,22.0116 33.6537,12.3449 49.5,3.5C 54.03,5.19947 58.1967,7.5328 62,10.5C 62.7504,9.87424 63.5838,9.37424 64.5,9C 69.8333,8.33333 75.1667,8.33333 80.5,9C 81.6906,9.69794 82.6906,10.5313 83.5,11.5 Z"/></g>
<g><path style="opacity:1" fill="#443c6f" d="M 48.5,9.5 C 54.276,12.5581 59.9427,15.8915 65.5,19.5C 66.4656,17.604 66.7989,15.604 66.5,13.5C 70.5,13.5 74.5,13.5 78.5,13.5C 78.1725,18.544 78.5059,23.544 79.5,28.5C 83.4206,31.0434 87.2539,33.7101 91,36.5C 91.4986,40.1516 91.6653,43.8183 91.5,47.5C 88.6851,46.8736 86.1851,45.5402 84,43.5C 83.8246,58.0746 83.3246,72.5746 82.5,87C 60.5,87.6667 38.5,87.6667 16.5,87C 15.6754,72.5746 15.1754,58.0746 15,43.5C 12.8149,45.5402 10.3149,46.8736 7.5,47.5C 7.17575,43.4454 7.50909,39.4454 8.5,35.5C 22.1433,27.1672 35.4766,18.5005 48.5,9.5 Z"/></g>
<g><path style="opacity:0.312" fill="#040404" d="M 83.5,11.5 C 84.2216,11.9175 84.7216,12.5842 85,13.5C 85.4988,17.4862 85.6655,21.4862 85.5,25.5C 83.5636,21.2853 82.8969,16.6186 83.5,11.5 Z"/></g>
<g><path style="opacity:1" fill="#cf7d57" d="M 68.5,24.5 C 70.6195,26.3998 72.9528,28.0664 75.5,29.5C 79.7832,31.943 83.9498,34.6097 88,37.5C 88.6667,39.5 88.6667,41.5 88,43.5C 86.0281,41.7682 83.8614,40.4348 81.5,39.5C 71.1392,32.4986 60.4725,25.8319 49.5,19.5C 38.5275,25.8319 27.8608,32.4986 17.5,39.5C 15.5336,40.4412 13.5336,41.4412 11.5,42.5C 10.2404,40.6471 10.2404,38.8138 11.5,37C 23.5,29.3333 35.5,21.6667 47.5,14C 48.8333,13.3333 50.1667,13.3333 51.5,14C 57.0691,17.7518 62.7358,21.2518 68.5,24.5 Z"/></g>
<g><path style="opacity:1" fill="#9ba5c2" d="M 75.5,29.5 C 72.9528,28.0664 70.6195,26.3998 68.5,24.5C 69.388,21.9455 69.7214,19.2788 69.5,16.5C 71.5,16.5 73.5,16.5 75.5,16.5C 75.5,20.8333 75.5,25.1667 75.5,29.5 Z"/></g>
<g><path style="opacity:1" fill="#bea599" d="M 81.5,39.5 C 80.6618,39.8417 80.3284,40.5084 80.5,41.5C 70.0276,35.4287 59.6942,29.0954 49.5,22.5C 39.2779,29.1065 28.9445,35.4398 18.5,41.5C 18.6716,40.5084 18.3382,39.8417 17.5,39.5C 27.8608,32.4986 38.5275,25.8319 49.5,19.5C 60.4725,25.8319 71.1392,32.4986 81.5,39.5 Z"/></g>
<g><path style="opacity:1" fill="#fdddb2" d="M 80.5,41.5 C 80.5,55.8333 80.5,70.1667 80.5,84.5C 59.8333,84.5 39.1667,84.5 18.5,84.5C 18.5,70.1667 18.5,55.8333 18.5,41.5C 28.9445,35.4398 39.2779,29.1065 49.5,22.5C 59.6942,29.0954 70.0276,35.4287 80.5,41.5 Z"/></g>
<g><path style="opacity:0.331" fill="#020202" d="M 96.5,33.5 C 97.2216,33.9175 97.7216,34.5842 98,35.5C 98.6667,40.8333 98.6667,46.1667 98,51.5C 96.195,54.0393 93.695,55.0393 90.5,54.5C 90.6665,66.8378 90.4999,79.1712 90,91.5C 89.5,92.6667 88.6667,93.5 87.5,94C 63.5,94.6667 39.5,94.6667 15.5,94C 14.5842,93.7216 13.9175,93.2216 13.5,92.5C 37.9232,92.9804 62.2566,92.4804 86.5,91C 87.1258,90.2496 87.6258,89.4162 88,88.5C 88.4999,76.5046 88.6665,64.5046 88.5,52.5C 91.9612,52.8541 94.4612,51.5208 96,48.5C 96.4993,43.5111 96.6659,38.5111 96.5,33.5 Z"/></g>
<g><path style="opacity:0.231" fill="#000000" d="M 5.5,52.5 C 7.78121,52.0773 9.44787,52.744 10.5,54.5C 8.44708,54.5979 6.78041,53.9313 5.5,52.5 Z"/></g>
<g><path style="opacity:1" fill="#70bfff" d="M 29.5,52.5 C 34.1667,52.5 38.8333,52.5 43.5,52.5C 43.5,58.5 43.5,64.5 43.5,70.5C 38.8333,70.5 34.1667,70.5 29.5,70.5C 29.5,64.5 29.5,58.5 29.5,52.5 Z"/></g>
<g><path style="opacity:1" fill="#70bfff" d="M 55.5,52.5 C 60.1667,52.5 64.8333,52.5 69.5,52.5C 69.5,58.5 69.5,64.5 69.5,70.5C 64.8333,70.5 60.1667,70.5 55.5,70.5C 55.5,64.5 55.5,58.5 55.5,52.5 Z"/></g>
</svg>
